<?xml version="1.0" encoding="UTF-8" standalone="no"?>
<!DOCTYPE svg PUBLIC "-//W3C//DTD SVG 1.1//EN" "http://www.w3.org/Graphics/SVG/1.1/DTD/svg11.dtd">
<svg width="100%" height="100%" viewBox="0 0 80 80" version="1.1" xmlns="http://www.w3.org/2000/svg" xmlns:xlink="http://www.w3.org/1999/xlink" xml:space="preserve" style="fill-rule:evenodd;clip-rule:evenodd;stroke-linecap:round;stroke-linejoin:round;stroke-miterlimit:1.5;">
    <g transform="matrix(1,0,0,1,-3.65805,2.54473)">
        <circle cx="43.34" cy="39.523" r="37.137" style="fill:rgb(46,46,46);"/>
    </g>
    <g transform="matrix(0.654661,0,0,0.654661,12.9488,14.8851)">
        <path d="M20.198,77.07L21.665,66.974C21.665,66.974 22.555,64.84 24.823,63.861C27.091,62.883 35.674,59.636 35.852,59.414C36.03,59.192 35.852,53.544 35.852,53.544C35.852,53.544 27.625,46.206 27.402,40.38C27.402,40.38 19.397,38.69 24.556,29.529C24.556,29.529 18.775,6.27 41.1,5.78C41.1,5.78 60.9,2.927 56.964,28.985C56.964,28.985 63.243,35.838 54.455,40.606C54.455,40.606 50.221,51.421 45.81,53.556L45.81,59.511C45.81,59.511 58.404,64.236 59.308,65.348C60.211,66.46 61.879,76.953 61.879,76.953C61.879,76.953 38.972,89.903 20.198,77.07Z" style="fill:white;stroke:black;stroke-width:1.53px;"/>
    </g>
</svg>
